<svg xmlns="http://www.w3.org/2000/svg" id="ea3de3c9-cc81-46a0-a381-1fc1f6442b4c" data-name="Layer 1" width="69.6298" height="62.0963" viewBox="0 0 69.6298 62.0963"><path d="M66.0928,26.2825H50.4158a.9213.9213,0,0,0-.914.793l-2.613,18.289a.9262.9262,0,0,0,.146.644l10.439,15.659a.9321.9321,0,0,0,.194.218.9.9,0,0,0,.125.087.931.931,0,0,0,.502.123.9118.9118,0,0,0,.177-.026.9248.9248,0,0,0,.436-.243.8919.8919,0,0,0,.115-.142l10.451-15.676a.917.917,0,0,0,.146-.644l-2.613-18.289A.9232.9232,0,0,0,66.0928,26.2825ZM56.9488,40.27a1.847,1.847,0,1,1,2.612,0A1.8475,1.8475,0,0,1,56.9488,40.27Zm2.23,17.852V42.8835a.9066.9066,0,0,0-.069-.338,3.66,3.66,0,0,0,1.757-.969,3.7281,3.7281,0,1,0-3.468.969.9262.9262,0,0,0-.0681.338L57.33,58.1215l-8.563-12.845,2.451-17.146H65.2917l2.45,17.146Z" style="fill-rule:evenodd"></path><path d="M49.11,24.2112H67.4a.9246.9246,0,0,0,.9179-.822l1.3071-11.757a.927.927,0,0,0-.266-.756L58.9075.4262a.9228.9228,0,0,0-1.306,0l-10.451,10.45a.927.927,0,0,0-.266.756l1.307,11.757A.9234.9234,0,0,0,49.11,24.2112Zm9.145-21.826,9.484,9.484-1.1661,10.495H49.9365L48.77,11.8692Z" style="fill-rule:evenodd"></path><path d="M9.97,12.727a.9337.9337,0,0,0-.055-.276c.012-2.352.026-4.828.042-7.464A4.9593,4.9593,0,0,0,4.974,0,5.081,5.081,0,0,0,.011,4.964L.009,12.681c-.001.016-.009.029-.009.046s.008.029.009.045L0,50.38v1.347a.9666.9666,0,0,0,.076.375l4.035,9.414a.9518.9518,0,0,0,1.7479,0L9.894,52.102a.9513.9513,0,0,0,.039-.639c-.011-.119-.024-.345-.0351-.723a.9128.9128,0,0,0-.018-.751c-.0619-3.213-.0979-12.428.0321-36.971A.947.947,0,0,0,9.97,12.727ZM1.913,4.964a3.1231,3.1231,0,0,1,3.08-3.062A3.0576,3.0576,0,0,1,8.0551,4.976c-.0141,2.389-.0281,4.647-.0391,6.8H1.9109Zm-.0021,8.713H8.006c-.123,22.58-.117,31.864-.013,35.754H1.902ZM4.985,58.727,1.902,51.532v-.199H8.079c.0039.049.008.101.012.146Z" style="fill-rule:evenodd"></path><path d="M35.7438.5814H23.7078a1.0633,1.0633,0,0,0-1.063,1.064v57.17a1.0633,1.0633,0,0,0,1.063,1.064h12.036a1.0635,1.0635,0,0,0,1.064-1.064V1.6454A1.0635,1.0635,0,0,0,35.7438.5814Zm-1.063,57.171h-9.909v-2.386h.441a1.064,1.064,0,0,0,0-2.128h-.441v-3.89h3.45a1.0635,1.0635,0,0,0,0-2.127h-3.45V43.33h.441a1.0635,1.0635,0,1,0,0-2.127h-.441v-3.891h3.45a1.0635,1.0635,0,0,0,0-2.127h-3.45v-3.891h.441a1.0635,1.0635,0,1,0,0-2.127h-.441v-3.891h3.45a1.064,1.064,0,0,0,0-2.128h-3.45v-3.89h.441a1.0635,1.0635,0,1,0,0-2.127h-.441V13.24h3.45a1.064,1.064,0,0,0,0-2.128h-3.45v-3.89h.441a1.0635,1.0635,0,1,0,0-2.127h-.441V2.7094h9.909Z" style="fill-rule:evenodd"></path></svg>