<svg xmlns="http://www.w3.org/2000/svg" id="ad4b4023-9900-442e-a496-8db111dac4fa" data-name="Layer 1" width="72.822" height="53.3835" viewBox="0 0 72.822 53.3835"><path d="M68.5372,16.014h-2.141v-8.54A7.4945,7.4945,0,0,0,58.8986,0H7.4968A7.4943,7.4943,0,0,0,0,7.4741V36.3008a7.4943,7.4943,0,0,0,7.4968,7.4741H32.1262v7.4714H20.3474a1.0686,1.0686,0,1,0,0,2.1372H46.0488a1.0686,1.0686,0,1,0,0-2.1372H34.27V43.7749H51.4018v5.3369a4.283,4.283,0,0,0,4.2847,4.2717H68.5372a4.2836,4.2836,0,0,0,4.2848-4.2717V20.2858A4.2837,4.2837,0,0,0,68.5372,16.014ZM51.4018,41.6377H7.4968a5.3518,5.3518,0,0,1-5.3531-5.3369V34.1663H51.4018Zm0-21.3519V32.0291H2.1437V7.4741A5.3517,5.3517,0,0,1,7.4968,2.1372H58.8986a5.3518,5.3518,0,0,1,5.3538,5.3369v8.54H55.6865A4.2831,4.2831,0,0,0,51.4018,20.2858Zm19.2756,28.826a2.14,2.14,0,0,1-2.14,2.1345H55.6865a2.14,2.14,0,0,1-2.141-2.1345V46.9781H70.6774Zm0-4.2718H53.5455V24.5576H70.6774Zm0-22.42H53.5455V20.2858a2.14,2.14,0,0,1,2.141-2.1336H68.5372a2.14,2.14,0,0,1,2.14,2.1336Z" style="fill-rule:evenodd"></path><path d="M58.1255,32.2432h6.7486a1.007,1.007,0,1,0,0-2H58.1255a1.007,1.007,0,1,0,0,2Z" style="fill-rule:evenodd"></path><path d="M58.1255,39.2432h6.7486a1.007,1.007,0,1,0,0-2H58.1255a1.007,1.007,0,1,0,0,2Z" style="fill-rule:evenodd"></path><path d="M51.9463,11.2432H14.0542a1.0014,1.0014,0,1,0,0,2H51.9463a1.0014,1.0014,0,1,0,0-2Z" style="fill-rule:evenodd"></path><path d="M44.9365,18.2432H13.0641a1.0019,1.0019,0,1,0,0,2H44.9365a1.0019,1.0019,0,1,0,0-2Z" style="fill-rule:evenodd"></path></svg>