<svg xmlns="http://www.w3.org/2000/svg" id="b03d1264-030c-4565-ba3e-345644330e03" data-name="Layer 1" width="56" height="55" viewBox="0 0 56 55"><path d="M23.75,45A1.2763,1.2763,0,0,0,25,43.7V33.3a1.251,1.251,0,1,0-2.5,0v3.9h-5V33.3a1.251,1.251,0,1,0-2.5,0V43.7a1.251,1.251,0,1,0,2.5,0V39.8h5v3.9A1.2763,1.2763,0,0,0,23.75,45Z"></path><path d="M31.5,45A1.4114,1.4114,0,0,0,33,43.7V34.6h1.5a1.3133,1.3133,0,1,0,0-2.6h-6a1.3133,1.3133,0,1,0,0,2.6H30v9.1A1.4114,1.4114,0,0,0,31.5,45Z"></path><path d="M46.2274,32.1011a1.2092,1.2092,0,0,0-1.3625.2807L42,35.3609,39.135,32.3818a1.217,1.217,0,0,0-1.3625-.2807A1.3014,1.3014,0,0,0,37,33.3021V43.7a1.251,1.251,0,1,0,2.5,0V36.44l1.6175,1.6793a1.2173,1.2173,0,0,0,1.7675,0L44.5,36.44V43.7a1.251,1.251,0,1,0,2.5,0V33.3021A1.3017,1.3017,0,0,0,46.2274,32.1011Z"></path><path d="M54.8332,42.4h-3.5V33.3A1.1735,1.1735,0,1,0,49,33.3V43.7A1.2393,1.2393,0,0,0,50.1667,45h4.6666a1.3076,1.3076,0,0,0,0-2.6Z"></path><path d="M40.8333,45.8333a1.1568,1.1568,0,0,0-1.1667,1.1458v5.7292H2.3333V16.0416H15.1666a1.1569,1.1569,0,0,0,1.1667-1.1458V2.2916H39.6665V28.6458a1.1669,1.1669,0,0,0,2.3335,0v-27.5A1.157,1.157,0,0,0,40.8332,0H15.1667a1.2159,1.2159,0,0,0-.4527.0894.8066.8066,0,0,0-.1168.0778,1.2649,1.2649,0,0,0-.2566.1673l-14,13.75a1.1411,1.1411,0,0,0-.126.1856,1.0615,1.0615,0,0,0-.1237.1834A1.1485,1.1485,0,0,0,0,14.8959V53.8542A1.1569,1.1569,0,0,0,1.1667,55H40.8333A1.1569,1.1569,0,0,0,42,53.8541v-6.875A1.1568,1.1568,0,0,0,40.8333,45.8333ZM14,3.9119V13.75H3.983Z"></path></svg>